<svg width="80" height="80" viewBox="0 0 80 80" fill="none" xmlns="http://www.w3.org/2000/svg">
<path d="M40 80C62.0914 80 80 62.0914 80 40C80 17.9086 62.0914 0 40 0C17.9086 0 0 17.9086 0 40C0 62.0914 17.9086 80 40 80Z" fill="#FFDD67"/>
<path d="M31.3334 35.2004C33.2 39.0671 30.8 44.0004 26.1334 46.2671C21.4667 48.4004 16.1334 47.0671 14.2667 43.2004C13.2 40.6671 30.2667 32.6671 31.3334 35.2004ZM48.6667 35.2004C46.8 39.0671 49.2 44.0004 53.8667 46.2671C58.5334 48.4004 63.8667 47.0671 65.7334 43.2004C66.8 40.6671 49.7334 32.6671 48.6667 35.2004Z" fill="#664E27"/>
<path d="M27.6002 23.7332C24.0002 28.1332 15.3335 32.1332 9.60018 32.1332C8.80018 32.1332 8.66684 35.0665 9.60018 35.0665C16.1335 35.0665 25.6002 30.6666 29.8668 25.5999C30.5335 24.9332 28.1335 23.1999 27.6002 23.7332ZM52.4002 23.7332C56.0002 28.1332 64.6668 32.1332 70.4002 32.1332C71.2002 32.1332 71.3335 35.0665 70.4002 35.0665C63.8668 35.0665 54.4002 30.6666 50.1335 25.5999C49.4668 24.9332 51.8668 23.1999 52.4002 23.7332Z" fill="#917524"/>
<path d="M51.4664 59.2007C44.2664 55.8674 35.7331 55.8674 28.5331 59.2007C26.7997 60.0007 28.9331 64.8007 30.7997 63.8674C35.5997 61.6007 42.6664 60.8007 49.3331 63.8674C51.0664 64.6674 53.3331 60.134 51.4664 59.2007Z" fill="#664E27"/>
</svg>
