<svg width="77" height="32" viewBox="0 0 77 32" fill="none" xmlns="http://www.w3.org/2000/svg">
<path d="M75.1533 20.3216V18.4968C75.1533 17.7322 74.9854 16.9785 74.6606 16.2869L71.0293 8.53873C70.2044 6.78143 68.4398 5.65917 66.4982 5.65917H59.3376C58.2719 5.65917 57.3595 6.42011 57.1679 7.46938L54.8431 20.2066C54.7792 20.5533 54.4782 20.8052 54.126 20.8052C53.6734 20.8052 53.3303 20.3982 53.407 19.953L56.3869 2.52048C56.5621 1.48946 55.7683 0.547852 54.7227 0.547852H14.4782C13.1168 0.547852 12.0146 1.65004 12.0146 3.01136C12.0146 4.37267 13.1168 5.47486 14.4782 5.47486H24.1205C25.365 5.47486 26.3084 6.5953 26.0986 7.81975C25.9344 8.78325 25.0986 9.48946 24.1205 9.48946H17.5803C16.219 9.48946 15.1168 10.5916 15.1168 11.953C15.1168 13.3143 16.219 14.4165 17.5803 14.4165H22.5931C23.8376 14.4165 24.7811 15.5369 24.5712 16.7614L24.011 20.0351C23.9398 20.4457 23.7117 20.8125 23.376 21.0606C23.0639 21.2887 22.8449 21.6537 22.7957 22.0789L22.6077 23.7431C22.511 24.6062 23.1442 25.3654 23.9636 25.3654H26.5584C26.9836 25.3654 27.3376 25.0442 27.3851 24.6227C27.7373 21.4457 30.3212 18.9785 33.4581 18.9785C36.5949 18.9785 39.1771 21.4457 39.5311 24.6227C39.5785 25.0442 39.9325 25.3654 40.3577 25.3654H58.3139C58.7391 25.3654 59.0931 25.0442 59.1406 24.6227C59.4928 21.4457 62.0767 18.9785 65.2136 18.9785C68.3504 18.9785 70.9325 21.4457 71.2865 24.6227C71.334 25.0442 71.688 25.3654 72.1132 25.3654H74.5183C75.2099 25.3654 75.792 24.8179 75.8741 24.088L76.0621 22.4238C76.1223 21.8964 75.907 21.4092 75.5457 21.1081C75.3084 20.911 75.1588 20.6281 75.1588 20.3197L75.1533 20.3216ZM69.896 14.9402H60.0584C59.7464 14.9402 59.511 14.6573 59.5676 14.3508L60.48 9.3526C60.5238 9.11537 60.73 8.94201 60.9709 8.94201H66.3468C67.6752 8.94201 68.8541 9.78873 69.2792 11.0479L70.3687 14.2814C70.4782 14.6044 70.2373 14.9402 69.896 14.9402Z" fill="#1975FF"/>
<path d="M37.6649 26.5495C38.5216 23.9742 37.2974 21.2483 34.9306 20.4609C32.5638 19.6736 29.9506 21.123 29.0939 23.6983C28.2372 26.2736 29.4614 28.9996 31.8282 29.7869C34.1951 30.5743 36.8083 29.1248 37.6649 26.5495Z" fill="#1975FF"/>
<path d="M69.3964 26.5495C70.2531 23.9742 69.0289 21.2483 66.662 20.4609C64.2952 19.6736 61.682 21.123 60.8253 23.6983C59.9687 26.2736 61.1929 28.9996 63.5597 29.7869C65.9265 30.5743 68.5397 29.1248 69.3964 26.5495Z" fill="#1975FF"/>
<path d="M7.54375 0.547852H3.16419C1.80363 0.547852 0.700684 1.6508 0.700684 3.01135C0.700684 4.37191 1.80363 5.47486 3.16419 5.47486H7.54375C8.9043 5.47486 10.0073 4.37191 10.0073 3.01135C10.0073 1.6508 8.9043 0.547852 7.54375 0.547852Z" fill="#1975FF"/>
<path d="M10.646 9.48926H9.18616C7.8256 9.48926 6.72266 10.5922 6.72266 11.9528C6.72266 13.3133 7.8256 14.4163 9.18616 14.4163H10.646C12.0066 14.4163 13.1095 13.3133 13.1095 11.9528C13.1095 10.5922 12.0066 9.48926 10.646 9.48926Z" fill="#1975FF"/>
</svg>
