<svg width="25" height="24" viewBox="0 0 25 24" fill="none" xmlns="http://www.w3.org/2000/svg">
<path d="M21.4503 3.53002C21.1575 3.23729 20.6829 3.23728 20.3902 3.52998L12.6712 11.248L4.96173 3.53663C4.6688 3.24362 4.19375 3.2437 3.90092 3.53681C3.60833 3.82968 3.60842 4.30424 3.90111 4.597L11.6112 12.309L3.8952 20.025C3.60243 20.3178 3.6022 20.7924 3.8947 21.0855C4.18762 21.3789 4.66305 21.3791 4.9562 21.0859L12.6712 13.369L20.3972 21.094C20.6899 21.3867 21.1645 21.3867 21.4572 21.094C21.75 20.8013 21.75 20.3267 21.4573 20.034L13.7332 12.309L21.4503 4.59005C21.743 4.2973 21.743 3.82273 21.4503 3.53002Z" fill="#CED2DA"/>
</svg>
