<svg width="81" height="80" viewBox="0 0 81 80" fill="none" xmlns="http://www.w3.org/2000/svg">
<path d="M68.3652 40C68.3652 55.464 55.8292 68 40.3652 68C24.9013 68 12.3652 55.464 12.3652 40C12.3652 24.536 24.9013 12 40.3652 12C55.8292 12 68.3652 24.536 68.3652 40Z" fill="url(#paint0_linear_687_5586)"/>
<path d="M37.6919 46.0455V45.9006C37.708 44.3632 37.869 43.1397 38.1749 42.2301C38.4808 41.3205 38.9154 40.584 39.4789 40.0206C40.0423 39.4571 40.7185 38.938 41.5073 38.4631C41.9822 38.1733 42.4088 37.8312 42.7871 37.4368C43.1654 37.0343 43.4632 36.5715 43.6806 36.0483C43.906 35.5251 44.0186 34.9455 44.0186 34.3097C44.0186 33.5208 43.8335 32.8366 43.4632 32.2571C43.093 31.6776 42.598 31.2308 41.9782 30.9169C41.3584 30.603 40.6702 30.446 39.9135 30.446C39.2535 30.446 38.6176 30.5829 38.0059 30.8565C37.3941 31.1302 36.883 31.5608 36.4725 32.1484C36.062 32.736 35.8245 33.5047 35.7601 34.4545H32.7175C32.7819 33.0862 33.1361 31.915 33.78 30.9411C34.432 29.9671 35.2892 29.2225 36.3517 28.7074C37.4223 28.1922 38.6096 27.9347 39.9135 27.9347C41.3302 27.9347 42.5617 28.2164 43.6081 28.7798C44.6626 29.3433 45.4756 30.116 46.0471 31.098C46.6266 32.08 46.9164 33.1989 46.9164 34.4545C46.9164 35.34 46.7795 36.1409 46.5059 36.8572C46.2402 37.5736 45.8539 38.2135 45.3468 38.777C44.8477 39.3404 44.244 39.8395 43.5357 40.2741C42.8274 40.7169 42.2599 41.1837 41.8333 41.6747C41.4067 42.1577 41.0968 42.7332 40.9036 43.4013C40.7104 44.0694 40.6058 44.9025 40.5897 45.9006V46.0455H37.6919ZM39.2374 53.1932C38.6417 53.1932 38.1306 52.9799 37.704 52.5533C37.2774 52.1267 37.0641 51.6155 37.0641 51.0199C37.0641 50.4242 37.2774 49.9131 37.704 49.4865C38.1306 49.0599 38.6417 48.8466 39.2374 48.8466C39.833 48.8466 40.3442 49.0599 40.7708 49.4865C41.1974 49.9131 41.4107 50.4242 41.4107 51.0199C41.4107 51.4143 41.3101 51.7765 41.1088 52.1065C40.9157 52.4366 40.6541 52.7022 40.324 52.9034C40.0021 53.0966 39.6399 53.1932 39.2374 53.1932Z" fill="white"/>
<defs>
<linearGradient id="paint0_linear_687_5586" x1="40.3652" y1="12" x2="40.3652" y2="68" gradientUnits="userSpaceOnUse">
<stop stop-color="#ADE3FA"/>
<stop offset="1" stop-color="#4886E8"/>
</linearGradient>
</defs>
</svg>
