<svg width="81" height="80" viewBox="0 0 81 80" fill="none" xmlns="http://www.w3.org/2000/svg">
<path d="M68.3652 40C68.3652 55.464 55.8292 68 40.3652 68C24.9013 68 12.3652 55.464 12.3652 40C12.3652 24.536 24.9013 12 40.3652 12C55.8292 12 68.3652 24.536 68.3652 40Z" fill="url(#paint0_linear_479_6799)"/>
<path d="M52.5033 31.3899C51.8556 30.8734 50.9118 30.9798 50.3954 31.6276L37.3116 48.0364C37.1256 48.2697 36.7781 48.2892 36.5671 48.0783L30.2301 41.7413C29.6443 41.1555 28.6946 41.1555 28.1088 41.7413C27.523 42.3271 27.523 43.2768 28.1088 43.8626L34.4458 50.1996C35.9224 51.6762 38.3553 51.5395 39.6572 49.9067L52.741 33.4979C53.2574 32.8501 53.151 31.9064 52.5033 31.3899Z" fill="white"/>
<defs>
<linearGradient id="paint0_linear_479_6799" x1="40.3652" y1="68" x2="40.3652" y2="12" gradientUnits="userSpaceOnUse">
<stop stop-color="#7DBA6E"/>
<stop offset="0.9531" stop-color="#C6E99A"/>
</linearGradient>
</defs>
</svg>
