<svg width="24" height="24" viewBox="0 0 24 24" fill="none" xmlns="http://www.w3.org/2000/svg">
<g clip-path="url(#clip0_2_88)">
<path d="M12.5136 0.616219C15.2867 0.616219 17.5435 2.8729 17.5435 5.64699L17.5435 22.8974L12.9644 18.3183L12.5573 18.7254L17.8318 23.9999L23.106 18.7255L22.6985 18.3184L18.1202 22.8975L18.1202 5.64699C18.1202 2.55509 15.6047 0.0408169 12.5141 0.0408168L12.456 0.0408168L12.456 0.61669L12.5136 0.61669L12.5136 0.616219Z" fill="#637083"/>
<path d="M11.4865 23.3837C8.71335 23.3837 6.45656 21.1265 6.45656 18.3534L6.45656 1.10293L11.0357 5.68204L11.4428 5.27495L6.16815 -2.35007e-07L0.894138 5.27448L1.30205 5.68157L5.88021 1.10293L5.88021 18.3534C5.88021 21.4448 8.39578 23.9595 11.4864 23.9595L11.5445 23.9595L11.5445 23.3837L11.4865 23.3837Z" fill="#637083"/>
</g>
<defs>
<clipPath id="clip0_2_88">
<rect width="24" height="24" fill="white" transform="translate(24) rotate(90)"/>
</clipPath>
</defs>
</svg>
